<?xml version="1.0" encoding="utf-8"?>
<!-- Generator: Adobe Illustrator 23.0.2, SVG Export Plug-In . SVG Version: 6.00 Build 0)  -->
<svg version="1.1" id="圖層_1" xmlns="http://www.w3.org/2000/svg" xmlns:xlink="http://www.w3.org/1999/xlink" x="0px" y="0px"
	 viewBox="0 0 1920 1080" style="enable-background:new 0 0 1920 1080;" xml:space="preserve">
<style type="text/css">
	.st0{fill:#FFFFFF;}
	.st1{fill:#FED173;}
	.st2{fill:#778E93;}
	.st3{opacity:0.12;}
	.st4{clip-path:url(#SVGID_2_);}
	.st5{clip-path:url(#SVGID_4_);}
</style>
<g>
	<rect y="0" class="st2" width="1920" height="1080"/>
	<g>
		<defs>
			<rect id="SVGID_1_" width="1920" height="1080"/>
		</defs>
		<clipPath id="SVGID_2_">
			<use xlink:href="#SVGID_1_"  style="overflow:visible;"/>
		</clipPath>
		<g class="st4">
			<g>
				<polygon class="st1" points="1630.89,1080.31 2001.03,710.17 2371.18,1080.31 				"/>
				<polygon class="st1" points="1445.82,895.24 1630.89,710.17 1815.96,895.24 				"/>
				<polygon class="st2" points="1260.75,1080.31 1445.82,895.24 1815.96,895.24 1630.89,1080.31 				"/>
			</g>
			<g>
				<polygon class="st2" points="1630.88,340.03 1260.74,-30.12 2001.02,-30.12 				"/>
				<polygon class="st0" points="2001.03,340.03 1815.95,525.1 1630.88,340.03 				"/>
				<polygon class="st1" points="2001.02,-30.12 2001.03,340.03 1630.88,340.03 				"/>
			</g>
			<g>
				<polygon class="st0" points="1075.66,895.23 1445.8,525.08 705.51,525.08 				"/>
				<polygon class="st1" points="1445.8,525.08 1075.66,154.94 705.51,525.08 				"/>
				<polygon class="st0" points="1630.87,340.01 1445.8,154.94 1260.73,340.01 				"/>
				<polygon class="st2" points="1445.82,525.08 1260.74,710.16 1445.82,895.23 				"/>
				<polygon class="st0" points="1815.96,525.08 1445.82,525.08 1445.82,895.23 				"/>
				<polygon class="st2" points="1815.94,525.08 1630.87,340.01 1260.73,340.01 1445.8,525.08 				"/>
				
					<rect x="1129.88" y="764.37" transform="matrix(-0.7071 0.7071 -0.7071 -0.7071 2785.2454 636.7671)" class="st1" width="261.72" height="261.72"/>
			</g>
			<g>
				<polygon class="st2" points="2001.02,340.01 1815.95,525.08 2001.02,710.15 				"/>
			</g>
		</g>
	</g>
	<path class="st1" d="M0,1080c0-43.51,429.81-78.78,960-78.78s960,35.27,960,78.78H0z"/>
</g>
</svg>
